# xmcd CD database file
#
# Track frame offsets:
#	150
#	19625
#	43605
#	65695
#	91590
#	113207
#	130025
#	152187
#	174262
#	191367
#	215700
#	236917
#	257062
#	280000
#
# Disc length: 3991 seconds
#
# Revision: 0
# Processed by: cddbd v1.5.1PL0 Copyright (c) Steve Scherf et al.
# Submitted via: CDex 1.51
#
DISCID=bc0f950e
DTITLE=及川光博 - 及川光博うっとりBOX「愛と芸術の日々」3　美徳のよろめき
DYEAR=2003
DGENRE=J-Pop
TTITLE0=理想論【indies】
TTITLE1=名器
TTITLE2=愛憎
TTITLE3=フィアンセになりたい
TTITLE4=懺悔
TTITLE5=血管と白夜【1999】
TTITLE6=パズルの欠片〜最後のクロスワード〜
TTITLE7=その術を僕は知らない【B】
TTITLE8=彼と彼女のこと
TTITLE9=SEXの意味・意味のないSEX
TTITLE10=ロリータの罠
TTITLE11=僕のゼリー
TTITLE12=若さのカタルシス
TTITLE13=求めすぎてる？僕。【デラックス】
EXTD=YEAR: 2003
EXTT0=
EXTT1=
EXTT2=
EXTT3=
EXTT4=
EXTT5=
EXTT6=
EXTT7=
EXTT8=
EXTT9=
EXTT10=
EXTT11=
EXTT12=
EXTT13=
PLAYORDER=
